<svg xmlns="http://www.w3.org/2000/svg" viewBox="0 0 320 200">
  <rect x="0" y="0" width="320" height="200" fill="#3d2c5e" />
  <g fill="#000000" opacity="0.15" transform="translate(0 6)">
    <circle cx="78" cy="100" r="42" />
    <circle cx="242" cy="100" r="42" />
    <path d="M166 38h-18l-17 55h25l-9 27 43-50h-29Z" />
  </g>
  <circle cx="78" cy="100" r="42" fill="#2bb3a3" />
  <circle cx="242" cy="100" r="42" fill="#ff8a4c" />
  <g fill="#ffffff">
    <circle cx="78" cy="93" r="8" />
    <circle cx="101" cy="93" r="8" />
    <circle cx="219" cy="93" r="8" />
    <circle cx="242" cy="93" r="8" />
  </g>
  <g fill="#1c1d1f">
    <circle cx="81" cy="93" r="3" />
    <circle cx="104" cy="93" r="3" />
    <circle cx="216" cy="93" r="3" />
    <circle cx="239" cy="93" r="3" />
  </g>
  <path d="M166 38h-18l-17 55h25l-9 27 43-50h-29Z" fill="#ffd967" />
  <text x="160" y="153" text-anchor="middle" fill="#ffffff" font-family="sans-serif" font-weight="900" font-size="28">VS</text>
</svg>
