<svg xmlns="http://www.w3.org/2000/svg" viewBox="0 0 320 200">
  <rect x="0" y="0" width="320" height="200" fill="#ffb84d" />
  <g fill="none" stroke="#ffffff" stroke-width="6" opacity="0.9" stroke-linecap="round">
    <path d="M-20 176c74-144 156-126 360-126" />
    <path d="M-20 204c76-144 160-126 360-126" />
    <path d="M-20 232c80-144 164-126 360-126" />
  </g>
  <g fill="#000000" opacity="0.15" transform="translate(0 6)">
    <circle cx="146" cy="84" r="16" />
    <path d="M236 42h40l24 22-24 22h-40Z" />
    <rect x="255" y="86" width="8" height="46" rx="4" />
  </g>
  <g stroke="#1c1d1f" stroke-width="5" stroke-linecap="round">
    <path d="M100 77h18" />
    <path d="M93 91h20" />
  </g>
  <circle cx="146" cy="84" r="16" fill="#1c1d1f" />
  <g fill="#ffffff">
    <rect x="255" y="86" width="8" height="46" rx="4" />
    <path d="M236 42h40l24 22-24 22h-40Z" />
  </g>
</svg>
