<svg xmlns="http://www.w3.org/2000/svg" viewBox="0 0 320 200">
  <rect x="0" y="0" width="320" height="200" fill="#2f8f83" />
  <g fill="#000000" opacity="0.15" transform="translate(0 6)">
    <rect x="20" y="56" width="64" height="88" rx="10" />
    <rect x="92" y="56" width="64" height="88" rx="10" />
    <rect x="164" y="56" width="64" height="88" rx="10" />
    <rect x="236" y="56" width="64" height="88" rx="10" />
  </g>
  <g fill="#23706a">
    <rect x="20" y="56" width="64" height="88" rx="10" />
    <rect x="164" y="56" width="64" height="88" rx="10" />
  </g>
  <g fill="#ffffff" opacity="0.25">
    <circle cx="34" cy="76" r="3" /><circle cx="46" cy="76" r="3" /><circle cx="58" cy="76" r="3" /><circle cx="70" cy="76" r="3" />
    <circle cx="34" cy="92" r="3" /><circle cx="46" cy="92" r="3" /><circle cx="58" cy="92" r="3" /><circle cx="70" cy="92" r="3" />
    <circle cx="34" cy="108" r="3" /><circle cx="46" cy="108" r="3" /><circle cx="58" cy="108" r="3" /><circle cx="70" cy="108" r="3" />
    <circle cx="34" cy="124" r="3" /><circle cx="46" cy="124" r="3" /><circle cx="58" cy="124" r="3" /><circle cx="70" cy="124" r="3" />
    <circle cx="178" cy="76" r="3" /><circle cx="190" cy="76" r="3" /><circle cx="202" cy="76" r="3" /><circle cx="214" cy="76" r="3" />
    <circle cx="178" cy="92" r="3" /><circle cx="190" cy="92" r="3" /><circle cx="202" cy="92" r="3" /><circle cx="214" cy="92" r="3" />
    <circle cx="178" cy="108" r="3" /><circle cx="190" cy="108" r="3" /><circle cx="202" cy="108" r="3" /><circle cx="214" cy="108" r="3" />
    <circle cx="178" cy="124" r="3" /><circle cx="190" cy="124" r="3" /><circle cx="202" cy="124" r="3" /><circle cx="214" cy="124" r="3" />
  </g>
  <g fill="#ffffff">
    <rect x="92" y="56" width="64" height="88" rx="10" />
    <rect x="236" y="56" width="64" height="88" rx="10" />
  </g>
  <g fill="#ffd967">
    <path d="m124 77 7 15 17 2-12 12 3 17-15-8-15 8 3-17-12-12 17-2Z" />
    <path d="m268 77 7 15 17 2-12 12 3 17-15-8-15 8 3-17-12-12 17-2Z" />
  </g>
</svg>
